<svg xmlns="http://www.w3.org/2000/svg" width="210" height="48" viewBox="0 0 210 48" role="img" aria-labelledby="title desc">
  <title id="title">English from the United States</title>
  <desc id="desc">Button to open the English README with the United States flag</desc>
  <rect x="1" y="1" width="208" height="46" rx="11" fill="#0f172a" stroke="#334155" stroke-width="2"/>
  <g transform="translate(16 14)">
    <rect width="30" height="20" rx="3" fill="#fff"/>
    <path d="M0 0h30v2H0zm0 4h30v2H0zm0 4h30v2H0zm0 4h30v2H0zm0 4h30v2H0z" fill="#d64b4b"/>
    <path d="M0 0h13v11H0z" fill="#29559b"/>
    <g fill="#fff">
      <circle cx="2.5" cy="2.3" r=".65"/><circle cx="6.5" cy="2.3" r=".65"/><circle cx="10.5" cy="2.3" r=".65"/>
      <circle cx="4.5" cy="5.3" r=".65"/><circle cx="8.5" cy="5.3" r=".65"/>
      <circle cx="2.5" cy="8.3" r=".65"/><circle cx="6.5" cy="8.3" r=".65"/><circle cx="10.5" cy="8.3" r=".65"/>
    </g>
  </g>
  <text x="58" y="30" fill="#f8fafc" font-family="Arial, Helvetica, sans-serif" font-size="15" font-weight="700">English (US)</text>
</svg>
